<mxfile host="app.diagrams.net" modified="2022-10-22T08:43:36.705Z" agent="5.0 (Windows NT 10.0; Win64; x64) AppleWebKit/537.36 (KHTML, like Gecko) Chrome/106.0.0.0 Safari/537.36" etag="-l9Wl_yLHrkV7LYD3-l_" version="20.5.0" type="github">
  <diagram name="Page-1" id="13e1069c-82ec-6db2-03f1-153e76fe0fe0">
    <mxGraphModel dx="3055" dy="1295" grid="1" gridSize="10" guides="1" tooltips="1" connect="1" arrows="1" fold="1" page="1" pageScale="1" pageWidth="1100" pageHeight="850" background="none" math="0" shadow="0">
      <root>
        <mxCell id="0" />
        <mxCell id="1" parent="0" />
        <mxCell id="gAT3jmnBQtWW5y3MEHsW-97" value="" style="rounded=0;whiteSpace=wrap;html=1;glass=0;fillColor=#f8cecc;strokeColor=#b85450;" vertex="1" parent="1">
          <mxGeometry x="1640" y="50" width="120" height="1210" as="geometry" />
        </mxCell>
        <mxCell id="gAT3jmnBQtWW5y3MEHsW-95" value="" style="rounded=0;whiteSpace=wrap;html=1;glass=0;fillColor=#dae8fc;strokeColor=#6c8ebf;" vertex="1" parent="1">
          <mxGeometry x="-80" y="50" width="1050" height="1210" as="geometry" />
        </mxCell>
        <mxCell id="gAT3jmnBQtWW5y3MEHsW-92" value="" style="rounded=0;whiteSpace=wrap;html=1;glass=0;fillColor=#fff2cc;strokeColor=#d6b656;" vertex="1" parent="1">
          <mxGeometry x="970" y="50" width="670" height="1210" as="geometry" />
        </mxCell>
        <mxCell id="gAT3jmnBQtWW5y3MEHsW-19" value="alt" style="shape=umlFrame;whiteSpace=wrap;html=1;rounded=0;glass=0;" vertex="1" parent="1">
          <mxGeometry x="650" y="460" width="1080" height="630" as="geometry" />
        </mxCell>
        <mxCell id="gAT3jmnBQtWW5y3MEHsW-59" value="loop" style="shape=umlFrame;whiteSpace=wrap;html=1;rounded=0;glass=0;" vertex="1" parent="1">
          <mxGeometry x="660" y="930" width="1060" height="150" as="geometry" />
        </mxCell>
        <mxCell id="gAT3jmnBQtWW5y3MEHsW-37" value="loop" style="shape=umlFrame;whiteSpace=wrap;html=1;rounded=0;glass=0;" vertex="1" parent="1">
          <mxGeometry x="660" y="640" width="1060" height="80" as="geometry" />
        </mxCell>
        <mxCell id="7baba1c4bc27f4b0-2" value=":AddressBookParser" style="shape=umlLifeline;perimeter=lifelinePerimeter;whiteSpace=wrap;html=1;container=1;collapsible=0;recursiveResize=0;outlineConnect=0;rounded=0;shadow=0;comic=0;labelBackgroundColor=none;strokeWidth=1;fontFamily=Verdana;fontSize=12;align=center;" parent="1" vertex="1">
          <mxGeometry x="220" y="80" width="140" height="1160" as="geometry" />
        </mxCell>
        <mxCell id="7baba1c4bc27f4b0-10" value="" style="html=1;points=[];perimeter=orthogonalPerimeter;rounded=0;shadow=0;comic=0;labelBackgroundColor=none;strokeWidth=1;fontFamily=Verdana;fontSize=12;align=center;" parent="7baba1c4bc27f4b0-2" vertex="1">
          <mxGeometry x="65" y="110" width="10" height="230" as="geometry" />
        </mxCell>
        <mxCell id="7baba1c4bc27f4b0-3" value=":ImportCommandParser" style="shape=umlLifeline;perimeter=lifelinePerimeter;whiteSpace=wrap;html=1;container=0;collapsible=0;recursiveResize=0;outlineConnect=0;rounded=0;shadow=0;comic=0;labelBackgroundColor=none;strokeWidth=1;fontFamily=Verdana;fontSize=12;align=center;glass=0;" parent="1" vertex="1">
          <mxGeometry x="340" y="180" width="160" height="230" as="geometry" />
        </mxCell>
        <mxCell id="7baba1c4bc27f4b0-4" value=":ParserUtil" style="shape=umlLifeline;perimeter=lifelinePerimeter;whiteSpace=wrap;html=1;container=1;collapsible=0;recursiveResize=0;outlineConnect=0;rounded=0;shadow=0;comic=0;labelBackgroundColor=none;strokeWidth=1;fontFamily=Verdana;fontSize=12;align=center;" parent="1" vertex="1">
          <mxGeometry x="540" y="80" width="100" height="1160" as="geometry" />
        </mxCell>
        <mxCell id="7baba1c4bc27f4b0-5" value=":ImportCommand" style="shape=umlLifeline;perimeter=lifelinePerimeter;whiteSpace=wrap;html=1;container=1;collapsible=0;recursiveResize=0;outlineConnect=0;rounded=0;shadow=0;comic=0;labelBackgroundColor=none;strokeWidth=1;fontFamily=Verdana;fontSize=12;align=center;" parent="1" vertex="1">
          <mxGeometry x="670" y="310" width="120" height="890" as="geometry" />
        </mxCell>
        <mxCell id="gAT3jmnBQtWW5y3MEHsW-10" value="" style="html=1;points=[];perimeter=orthogonalPerimeter;rounded=0;shadow=0;comic=0;labelBackgroundColor=none;strokeWidth=1;fontFamily=Verdana;fontSize=12;align=center;" vertex="1" parent="7baba1c4bc27f4b0-5">
          <mxGeometry x="55" y="40" width="10" height="20" as="geometry" />
        </mxCell>
        <mxCell id="7baba1c4bc27f4b0-6" value=":JsonAddressBookStorage" style="shape=umlLifeline;perimeter=lifelinePerimeter;whiteSpace=wrap;html=1;container=1;collapsible=0;recursiveResize=0;outlineConnect=0;rounded=0;shadow=0;comic=0;labelBackgroundColor=none;strokeWidth=1;fontFamily=Verdana;fontSize=12;align=center;" parent="1" vertex="1">
          <mxGeometry x="980" y="480" width="170" height="140" as="geometry" />
        </mxCell>
        <mxCell id="gAT3jmnBQtWW5y3MEHsW-25" value="" style="html=1;points=[];perimeter=orthogonalPerimeter;rounded=0;glass=0;" vertex="1" parent="7baba1c4bc27f4b0-6">
          <mxGeometry x="80" y="40" width="10" height="20" as="geometry" />
        </mxCell>
        <mxCell id="gAT3jmnBQtWW5y3MEHsW-31" value="" style="html=1;points=[];perimeter=orthogonalPerimeter;rounded=0;glass=0;" vertex="1" parent="7baba1c4bc27f4b0-6">
          <mxGeometry x="80" y="80" width="10" height="30" as="geometry" />
        </mxCell>
        <mxCell id="gAT3jmnBQtWW5y3MEHsW-41" value="" style="shape=umlDestroy;whiteSpace=wrap;html=1;strokeWidth=3;rounded=0;glass=0;" vertex="1" parent="7baba1c4bc27f4b0-6">
          <mxGeometry x="70" y="120" width="30" height="30" as="geometry" />
        </mxCell>
        <mxCell id="7baba1c4bc27f4b0-7" value=":Model" style="shape=umlLifeline;perimeter=lifelinePerimeter;whiteSpace=wrap;html=1;container=1;collapsible=0;recursiveResize=0;outlineConnect=0;rounded=0;shadow=0;comic=0;labelBackgroundColor=none;strokeWidth=1;fontFamily=Verdana;fontSize=12;align=center;" parent="1" vertex="1">
          <mxGeometry x="1650" y="80" width="100" height="1160" as="geometry" />
        </mxCell>
        <mxCell id="7baba1c4bc27f4b0-25" value="" style="html=1;points=[];perimeter=orthogonalPerimeter;rounded=0;shadow=0;comic=0;labelBackgroundColor=none;strokeColor=#000000;strokeWidth=1;fillColor=#FFFFFF;fontFamily=Verdana;fontSize=12;fontColor=#000000;align=center;" parent="7baba1c4bc27f4b0-7" vertex="1">
          <mxGeometry x="45" y="595" width="10" height="30" as="geometry" />
        </mxCell>
        <mxCell id="gAT3jmnBQtWW5y3MEHsW-21" value="" style="endArrow=none;dashed=1;html=1;rounded=0;" edge="1" parent="7baba1c4bc27f4b0-7">
          <mxGeometry width="50" height="50" relative="1" as="geometry">
            <mxPoint x="81" y="650" as="sourcePoint" />
            <mxPoint x="-1000" y="650" as="targetPoint" />
          </mxGeometry>
        </mxCell>
        <mxCell id="gAT3jmnBQtWW5y3MEHsW-66" value="" style="html=1;points=[];perimeter=orthogonalPerimeter;rounded=0;shadow=0;comic=0;labelBackgroundColor=none;strokeColor=#000000;strokeWidth=1;fillColor=#FFFFFF;fontFamily=Verdana;fontSize=12;fontColor=#000000;align=center;" vertex="1" parent="7baba1c4bc27f4b0-7">
          <mxGeometry x="45" y="960" width="10" height="30" as="geometry" />
        </mxCell>
        <mxCell id="7baba1c4bc27f4b0-8" value=":LogicManager" style="shape=umlLifeline;perimeter=lifelinePerimeter;whiteSpace=wrap;html=1;container=1;collapsible=0;recursiveResize=0;outlineConnect=0;rounded=0;shadow=0;comic=0;labelBackgroundColor=none;strokeWidth=1;fontFamily=Verdana;fontSize=12;align=center;" parent="1" vertex="1">
          <mxGeometry x="25" y="80" width="100" height="1160" as="geometry" />
        </mxCell>
        <mxCell id="7baba1c4bc27f4b0-9" value="" style="html=1;points=[];perimeter=orthogonalPerimeter;rounded=0;shadow=0;comic=0;labelBackgroundColor=none;strokeWidth=1;fontFamily=Verdana;fontSize=12;align=center;" parent="7baba1c4bc27f4b0-8" vertex="1">
          <mxGeometry x="45" y="100" width="10" height="1030" as="geometry" />
        </mxCell>
        <mxCell id="gAT3jmnBQtWW5y3MEHsW-1" value="execute(&quot;import PATH&quot;)" style="html=1;verticalAlign=bottom;endArrow=block;entryX=0;entryY=0;labelBackgroundColor=none;fontFamily=Verdana;fontSize=12;edgeStyle=elbowEdgeStyle;elbow=vertical;" edge="1" parent="7baba1c4bc27f4b0-8">
          <mxGeometry relative="1" as="geometry">
            <mxPoint x="-95" y="100" as="sourcePoint" />
            <mxPoint x="45" y="99.43" as="targetPoint" />
          </mxGeometry>
        </mxCell>
        <mxCell id="gAT3jmnBQtWW5y3MEHsW-16" value="" style="html=1;verticalAlign=bottom;endArrow=open;dashed=1;endSize=8;labelBackgroundColor=none;fontFamily=Verdana;fontSize=12;edgeStyle=elbowEdgeStyle;elbow=vertical;exitX=-0.013;exitY=0.997;exitDx=0;exitDy=0;exitPerimeter=0;" edge="1" parent="7baba1c4bc27f4b0-8">
          <mxGeometry x="-0.1285" y="-10" relative="1" as="geometry">
            <mxPoint x="-95" y="1130" as="targetPoint" />
            <Array as="points">
              <mxPoint x="30.13" y="1130.33" />
              <mxPoint x="-69.87" y="1120.33" />
              <mxPoint x="-9.870000000000001" y="1120.33" />
            </Array>
            <mxPoint x="54.999999999999886" y="1130" as="sourcePoint" />
            <mxPoint as="offset" />
          </mxGeometry>
        </mxCell>
        <mxCell id="7baba1c4bc27f4b0-16" value="" style="html=1;points=[];perimeter=orthogonalPerimeter;rounded=0;shadow=0;comic=0;labelBackgroundColor=none;strokeWidth=1;fontFamily=Verdana;fontSize=12;align=center;" parent="1" vertex="1">
          <mxGeometry x="585" y="290" width="10" height="20" as="geometry" />
        </mxCell>
        <mxCell id="7baba1c4bc27f4b0-23" value="execute(model)" style="html=1;verticalAlign=bottom;endArrow=block;entryX=0;entryY=0;labelBackgroundColor=none;fontFamily=Verdana;fontSize=12;" parent="1" source="7baba1c4bc27f4b0-9" target="7baba1c4bc27f4b0-22" edge="1">
          <mxGeometry relative="1" as="geometry">
            <mxPoint x="510" y="420" as="sourcePoint" />
            <Array as="points">
              <mxPoint x="440" y="450" />
            </Array>
          </mxGeometry>
        </mxCell>
        <mxCell id="7baba1c4bc27f4b0-11" value="parseCommand(&quot;import PATH&quot;)" style="html=1;verticalAlign=bottom;endArrow=block;entryX=0;entryY=0;labelBackgroundColor=none;fontFamily=Verdana;fontSize=12;edgeStyle=elbowEdgeStyle;elbow=vertical;" parent="1" source="7baba1c4bc27f4b0-9" target="7baba1c4bc27f4b0-10" edge="1">
          <mxGeometry relative="1" as="geometry">
            <mxPoint x="220" y="190" as="sourcePoint" />
            <Array as="points">
              <mxPoint x="190" y="190" />
            </Array>
          </mxGeometry>
        </mxCell>
        <mxCell id="7baba1c4bc27f4b0-14" value="" style="html=1;verticalAlign=bottom;endArrow=block;labelBackgroundColor=none;fontFamily=Verdana;fontSize=12;edgeStyle=elbowEdgeStyle;elbow=vertical;" parent="1" source="7baba1c4bc27f4b0-10" edge="1">
          <mxGeometry relative="1" as="geometry">
            <mxPoint x="370" y="200" as="sourcePoint" />
            <mxPoint x="340" y="200" as="targetPoint" />
          </mxGeometry>
        </mxCell>
        <mxCell id="7baba1c4bc27f4b0-13" value="" style="html=1;points=[];perimeter=orthogonalPerimeter;rounded=0;shadow=0;comic=0;labelBackgroundColor=none;strokeWidth=1;fontFamily=Verdana;fontSize=12;align=center;" parent="1" vertex="1">
          <mxGeometry x="415" y="220" width="10" height="20" as="geometry" />
        </mxCell>
        <mxCell id="gAT3jmnBQtWW5y3MEHsW-3" value="" style="html=1;verticalAlign=bottom;endArrow=open;dashed=1;endSize=8;labelBackgroundColor=none;fontFamily=Verdana;fontSize=12;edgeStyle=elbowEdgeStyle;elbow=vertical;entryX=1.078;entryY=0.221;entryDx=0;entryDy=0;entryPerimeter=0;" edge="1" parent="1" target="7baba1c4bc27f4b0-10">
          <mxGeometry x="-0.1285" y="-10" relative="1" as="geometry">
            <mxPoint x="300" y="240" as="targetPoint" />
            <Array as="points">
              <mxPoint x="345" y="240" />
            </Array>
            <mxPoint x="420" y="240" as="sourcePoint" />
            <mxPoint as="offset" />
          </mxGeometry>
        </mxCell>
        <mxCell id="gAT3jmnBQtWW5y3MEHsW-5" value="" style="html=1;points=[];perimeter=orthogonalPerimeter;rounded=0;shadow=0;comic=0;labelBackgroundColor=none;strokeWidth=1;fontFamily=Verdana;fontSize=12;align=center;" vertex="1" parent="1">
          <mxGeometry x="415" y="280" width="10" height="110" as="geometry" />
        </mxCell>
        <mxCell id="gAT3jmnBQtWW5y3MEHsW-6" value="parseImportPath(&quot;PATH&quot;)" style="html=1;verticalAlign=bottom;endArrow=block;labelBackgroundColor=none;fontFamily=Verdana;fontSize=12;edgeStyle=elbowEdgeStyle;elbow=vertical;entryX=-0.017;entryY=0.005;entryDx=0;entryDy=0;entryPerimeter=0;exitX=1.007;exitY=0.111;exitDx=0;exitDy=0;exitPerimeter=0;" edge="1" parent="1" source="gAT3jmnBQtWW5y3MEHsW-5" target="7baba1c4bc27f4b0-16">
          <mxGeometry relative="1" as="geometry">
            <mxPoint x="430" y="290" as="sourcePoint" />
            <mxPoint x="580" y="291" as="targetPoint" />
          </mxGeometry>
        </mxCell>
        <mxCell id="gAT3jmnBQtWW5y3MEHsW-7" value="" style="html=1;verticalAlign=bottom;endArrow=open;dashed=1;endSize=8;labelBackgroundColor=none;fontFamily=Verdana;fontSize=12;edgeStyle=elbowEdgeStyle;elbow=vertical;entryX=1.083;entryY=0.276;entryDx=0;entryDy=0;entryPerimeter=0;" edge="1" parent="1" source="7baba1c4bc27f4b0-16" target="gAT3jmnBQtWW5y3MEHsW-5">
          <mxGeometry x="-0.1285" y="-10" relative="1" as="geometry">
            <mxPoint x="430.00000000000006" y="310.38" as="targetPoint" />
            <Array as="points">
              <mxPoint x="440" y="310" />
              <mxPoint x="450" y="310" />
              <mxPoint x="420" y="310" />
              <mxPoint x="480.8" y="310" />
            </Array>
            <mxPoint x="555.8" y="310" as="sourcePoint" />
            <mxPoint as="offset" />
          </mxGeometry>
        </mxCell>
        <mxCell id="gAT3jmnBQtWW5y3MEHsW-9" value="" style="html=1;verticalAlign=bottom;endArrow=block;labelBackgroundColor=none;fontFamily=Verdana;fontSize=12;edgeStyle=elbowEdgeStyle;elbow=vertical;" edge="1" parent="1">
          <mxGeometry relative="1" as="geometry">
            <mxPoint x="425" y="330" as="sourcePoint" />
            <mxPoint x="670" y="330" as="targetPoint" />
            <Array as="points">
              <mxPoint x="660" y="330" />
            </Array>
          </mxGeometry>
        </mxCell>
        <mxCell id="gAT3jmnBQtWW5y3MEHsW-4" value="parse(&quot;PATH&quot;)" style="html=1;verticalAlign=bottom;endArrow=block;labelBackgroundColor=none;fontFamily=Verdana;fontSize=12;edgeStyle=elbowEdgeStyle;elbow=vertical;entryX=-0.015;entryY=-0.001;entryDx=0;entryDy=0;entryPerimeter=0;" edge="1" parent="1" target="gAT3jmnBQtWW5y3MEHsW-5">
          <mxGeometry relative="1" as="geometry">
            <mxPoint x="295" y="280" as="sourcePoint" />
            <mxPoint x="360" y="260.33" as="targetPoint" />
            <Array as="points">
              <mxPoint x="380" y="280" />
            </Array>
          </mxGeometry>
        </mxCell>
        <mxCell id="gAT3jmnBQtWW5y3MEHsW-11" value="" style="html=1;verticalAlign=bottom;endArrow=open;dashed=1;endSize=8;labelBackgroundColor=none;fontFamily=Verdana;fontSize=12;edgeStyle=elbowEdgeStyle;elbow=vertical;entryX=1.11;entryY=0.815;entryDx=0;entryDy=0;entryPerimeter=0;" edge="1" parent="1" source="7baba1c4bc27f4b0-5" target="gAT3jmnBQtWW5y3MEHsW-5">
          <mxGeometry x="-0.1285" y="-10" relative="1" as="geometry">
            <mxPoint x="430" y="370" as="targetPoint" />
            <Array as="points">
              <mxPoint x="420" y="370" />
              <mxPoint x="438.33" y="359.67" />
              <mxPoint x="448.33" y="359.67" />
              <mxPoint x="418.33" y="359.67" />
              <mxPoint x="479.13" y="359.67" />
            </Array>
            <mxPoint x="583.33" y="359.67" as="sourcePoint" />
            <mxPoint as="offset" />
          </mxGeometry>
        </mxCell>
        <mxCell id="gAT3jmnBQtWW5y3MEHsW-14" value="" style="html=1;verticalAlign=bottom;endArrow=open;dashed=1;endSize=8;labelBackgroundColor=none;fontFamily=Verdana;fontSize=12;edgeStyle=elbowEdgeStyle;elbow=vertical;exitX=-0.013;exitY=0.997;exitDx=0;exitDy=0;exitPerimeter=0;" edge="1" parent="1" source="gAT3jmnBQtWW5y3MEHsW-5">
          <mxGeometry x="-0.1285" y="-10" relative="1" as="geometry">
            <mxPoint x="295" y="390" as="targetPoint" />
            <Array as="points">
              <mxPoint x="390" y="390" />
              <mxPoint x="290" y="380" />
              <mxPoint x="350" y="380" />
            </Array>
            <mxPoint x="410" y="390" as="sourcePoint" />
            <mxPoint as="offset" />
          </mxGeometry>
        </mxCell>
        <mxCell id="gAT3jmnBQtWW5y3MEHsW-15" value="" style="shape=umlDestroy;whiteSpace=wrap;html=1;strokeWidth=3;rounded=0;glass=0;" vertex="1" parent="1">
          <mxGeometry x="405" y="395" width="30" height="30" as="geometry" />
        </mxCell>
        <mxCell id="gAT3jmnBQtWW5y3MEHsW-32" value="readAddressBook()" style="html=1;verticalAlign=bottom;endArrow=block;entryX=0;entryY=0;rounded=0;" edge="1" target="gAT3jmnBQtWW5y3MEHsW-31" parent="1" source="7baba1c4bc27f4b0-5">
          <mxGeometry relative="1" as="geometry">
            <mxPoint x="800" y="560" as="sourcePoint" />
          </mxGeometry>
        </mxCell>
        <mxCell id="gAT3jmnBQtWW5y3MEHsW-23" value="[path is to JSON file]" style="text;html=1;strokeColor=none;fillColor=none;align=center;verticalAlign=middle;whiteSpace=wrap;rounded=0;glass=0;" vertex="1" parent="1">
          <mxGeometry x="735" y="460" width="120" height="20" as="geometry" />
        </mxCell>
        <mxCell id="gAT3jmnBQtWW5y3MEHsW-27" value="" style="html=1;verticalAlign=bottom;endArrow=open;dashed=1;endSize=8;exitX=0;exitY=0.95;rounded=0;" edge="1" source="gAT3jmnBQtWW5y3MEHsW-25" parent="1" target="7baba1c4bc27f4b0-22">
          <mxGeometry relative="1" as="geometry">
            <mxPoint x="800" y="576" as="targetPoint" />
          </mxGeometry>
        </mxCell>
        <mxCell id="gAT3jmnBQtWW5y3MEHsW-33" value="" style="html=1;verticalAlign=bottom;endArrow=open;dashed=1;endSize=8;rounded=0;entryX=1.2;entryY=0.195;entryDx=0;entryDy=0;entryPerimeter=0;" edge="1" source="7baba1c4bc27f4b0-6" parent="1" target="7baba1c4bc27f4b0-22">
          <mxGeometry relative="1" as="geometry">
            <mxPoint x="740" y="590" as="targetPoint" />
            <mxPoint x="870" y="590" as="sourcePoint" />
          </mxGeometry>
        </mxCell>
        <mxCell id="gAT3jmnBQtWW5y3MEHsW-38" value="[for each person]" style="text;html=1;strokeColor=none;fillColor=none;align=center;verticalAlign=middle;whiteSpace=wrap;rounded=0;glass=0;" vertex="1" parent="1">
          <mxGeometry x="725" y="640" width="120" height="20" as="geometry" />
        </mxCell>
        <mxCell id="gAT3jmnBQtWW5y3MEHsW-39" value="addPerson(person)" style="html=1;verticalAlign=bottom;endArrow=block;labelBackgroundColor=none;fontFamily=Verdana;fontSize=12;edgeStyle=elbowEdgeStyle;elbow=vertical;" edge="1" parent="1" target="7baba1c4bc27f4b0-7">
          <mxGeometry relative="1" as="geometry">
            <mxPoint x="735" y="675" as="sourcePoint" />
            <mxPoint x="1004.5499999999997" y="674.61" as="targetPoint" />
            <Array as="points">
              <mxPoint x="870" y="675" />
            </Array>
          </mxGeometry>
        </mxCell>
        <mxCell id="gAT3jmnBQtWW5y3MEHsW-42" value="" style="html=1;verticalAlign=bottom;endArrow=block;labelBackgroundColor=none;fontFamily=Verdana;fontSize=12;edgeStyle=elbowEdgeStyle;elbow=vertical;" edge="1" parent="1" source="7baba1c4bc27f4b0-5">
          <mxGeometry relative="1" as="geometry">
            <mxPoint x="904.0699999999999" y="760" as="sourcePoint" />
            <mxPoint x="1150.0000000000005" y="760" as="targetPoint" />
            <Array as="points">
              <mxPoint x="909.0699999999999" y="760" />
            </Array>
          </mxGeometry>
        </mxCell>
        <mxCell id="gAT3jmnBQtWW5y3MEHsW-43" value=":CsvToBeanBuilder" style="shape=umlLifeline;perimeter=lifelinePerimeter;whiteSpace=wrap;html=1;container=1;collapsible=0;recursiveResize=0;outlineConnect=0;rounded=0;shadow=0;comic=0;labelBackgroundColor=none;strokeWidth=1;fontFamily=Verdana;fontSize=12;align=center;" vertex="1" parent="1">
          <mxGeometry x="1150" y="740" width="170" height="160" as="geometry" />
        </mxCell>
        <mxCell id="gAT3jmnBQtWW5y3MEHsW-44" value="" style="html=1;points=[];perimeter=orthogonalPerimeter;rounded=0;glass=0;" vertex="1" parent="gAT3jmnBQtWW5y3MEHsW-43">
          <mxGeometry x="80" y="40" width="10" height="20" as="geometry" />
        </mxCell>
        <mxCell id="gAT3jmnBQtWW5y3MEHsW-45" value="" style="html=1;points=[];perimeter=orthogonalPerimeter;rounded=0;glass=0;" vertex="1" parent="gAT3jmnBQtWW5y3MEHsW-43">
          <mxGeometry x="80" y="80" width="10" height="60" as="geometry" />
        </mxCell>
        <mxCell id="gAT3jmnBQtWW5y3MEHsW-54" value="" style="html=1;verticalAlign=bottom;endArrow=block;rounded=0;" edge="1" parent="gAT3jmnBQtWW5y3MEHsW-43" target="gAT3jmnBQtWW5y3MEHsW-51">
          <mxGeometry relative="1" as="geometry">
            <mxPoint x="89.99666666666701" y="94.58000000000004" as="sourcePoint" />
            <mxPoint x="421.2599999999999" y="94.58000000000004" as="targetPoint" />
          </mxGeometry>
        </mxCell>
        <mxCell id="gAT3jmnBQtWW5y3MEHsW-46" value="parse()" style="html=1;verticalAlign=bottom;endArrow=block;entryX=0;entryY=0;rounded=0;" edge="1" parent="1" target="gAT3jmnBQtWW5y3MEHsW-45" source="7baba1c4bc27f4b0-5">
          <mxGeometry relative="1" as="geometry">
            <mxPoint x="920.001428571428" y="820" as="sourcePoint" />
          </mxGeometry>
        </mxCell>
        <mxCell id="gAT3jmnBQtWW5y3MEHsW-47" value="" style="html=1;verticalAlign=bottom;endArrow=open;dashed=1;endSize=8;exitX=0;exitY=0.95;rounded=0;entryX=1.053;entryY=0.486;entryDx=0;entryDy=0;entryPerimeter=0;" edge="1" parent="1" source="gAT3jmnBQtWW5y3MEHsW-44" target="7baba1c4bc27f4b0-22">
          <mxGeometry relative="1" as="geometry">
            <mxPoint x="925.9300000000005" y="799" as="targetPoint" />
          </mxGeometry>
        </mxCell>
        <mxCell id="gAT3jmnBQtWW5y3MEHsW-49" value="" style="shape=umlDestroy;whiteSpace=wrap;html=1;strokeWidth=3;rounded=0;glass=0;" vertex="1" parent="1">
          <mxGeometry x="1220" y="890" width="30" height="30" as="geometry" />
        </mxCell>
        <mxCell id="gAT3jmnBQtWW5y3MEHsW-50" value="[path is to CSV file]" style="text;html=1;strokeColor=none;fillColor=none;align=center;verticalAlign=middle;whiteSpace=wrap;rounded=0;glass=0;" vertex="1" parent="1">
          <mxGeometry x="735" y="730" width="120" height="20" as="geometry" />
        </mxCell>
        <mxCell id="7baba1c4bc27f4b0-22" value="" style="html=1;points=[];perimeter=orthogonalPerimeter;rounded=0;shadow=0;comic=0;labelBackgroundColor=none;strokeWidth=1;fontFamily=Verdana;fontSize=12;align=center;" parent="1" vertex="1">
          <mxGeometry x="725" y="450" width="10" height="720" as="geometry" />
        </mxCell>
        <mxCell id="gAT3jmnBQtWW5y3MEHsW-51" value=":CsvAdaptedPerson" style="shape=umlLifeline;perimeter=lifelinePerimeter;whiteSpace=wrap;html=1;container=1;collapsible=0;recursiveResize=0;outlineConnect=0;rounded=0;shadow=0;comic=0;labelBackgroundColor=none;strokeWidth=1;fontFamily=Verdana;fontSize=12;align=center;" vertex="1" parent="1">
          <mxGeometry x="1330" y="80" width="130" height="1160" as="geometry" />
        </mxCell>
        <mxCell id="gAT3jmnBQtWW5y3MEHsW-55" value="" style="html=1;points=[];perimeter=orthogonalPerimeter;rounded=0;glass=0;" vertex="1" parent="gAT3jmnBQtWW5y3MEHsW-51">
          <mxGeometry x="60" y="755" width="10" height="35" as="geometry" />
        </mxCell>
        <mxCell id="gAT3jmnBQtWW5y3MEHsW-73" value="" style="html=1;verticalAlign=bottom;endArrow=open;dashed=1;endSize=8;rounded=0;entryX=1.04;entryY=0.833;entryDx=0;entryDy=0;entryPerimeter=0;" edge="1" parent="gAT3jmnBQtWW5y3MEHsW-51" target="gAT3jmnBQtWW5y3MEHsW-45">
          <mxGeometry relative="1" as="geometry">
            <mxPoint x="-264.6200000000001" y="790" as="targetPoint" />
            <mxPoint x="60" y="790" as="sourcePoint" />
          </mxGeometry>
        </mxCell>
        <mxCell id="gAT3jmnBQtWW5y3MEHsW-70" value="" style="html=1;points=[];perimeter=orthogonalPerimeter;rounded=0;glass=0;" vertex="1" parent="gAT3jmnBQtWW5y3MEHsW-51">
          <mxGeometry x="60" y="890" width="10" height="35" as="geometry" />
        </mxCell>
        <mxCell id="gAT3jmnBQtWW5y3MEHsW-56" value=":StringToTag" style="shape=umlLifeline;perimeter=lifelinePerimeter;whiteSpace=wrap;html=1;container=1;collapsible=0;recursiveResize=0;outlineConnect=0;rounded=0;shadow=0;comic=0;labelBackgroundColor=none;strokeWidth=1;fontFamily=Verdana;fontSize=12;align=center;" vertex="1" parent="1">
          <mxGeometry x="1490" y="80" width="130" height="1160" as="geometry" />
        </mxCell>
        <mxCell id="gAT3jmnBQtWW5y3MEHsW-58" value="" style="html=1;verticalAlign=bottom;endArrow=block;rounded=0;" edge="1" parent="gAT3jmnBQtWW5y3MEHsW-56">
          <mxGeometry relative="1" as="geometry">
            <mxPoint x="-90" y="765" as="sourcePoint" />
            <mxPoint x="60" y="765" as="targetPoint" />
          </mxGeometry>
        </mxCell>
        <mxCell id="gAT3jmnBQtWW5y3MEHsW-57" value="" style="html=1;points=[];perimeter=orthogonalPerimeter;rounded=0;glass=0;" vertex="1" parent="gAT3jmnBQtWW5y3MEHsW-56">
          <mxGeometry x="59.99999999999977" y="762.5" width="10" height="20" as="geometry" />
        </mxCell>
        <mxCell id="gAT3jmnBQtWW5y3MEHsW-60" value="[for each CsvAdaptedPerson]" style="text;html=1;strokeColor=none;fillColor=none;align=center;verticalAlign=middle;whiteSpace=wrap;rounded=0;glass=0;" vertex="1" parent="1">
          <mxGeometry x="735" y="930" width="165" height="20" as="geometry" />
        </mxCell>
        <mxCell id="gAT3jmnBQtWW5y3MEHsW-67" value="" style="html=1;verticalAlign=bottom;endArrow=none;labelBackgroundColor=none;fontFamily=Verdana;fontSize=12;edgeStyle=elbowEdgeStyle;elbow=vertical;" edge="1" parent="1" target="gAT3jmnBQtWW5y3MEHsW-59">
          <mxGeometry relative="1" as="geometry">
            <mxPoint x="735" y="1040" as="sourcePoint" />
            <mxPoint x="1579.5000000000005" y="1040" as="targetPoint" />
            <Array as="points" />
          </mxGeometry>
        </mxCell>
        <mxCell id="gAT3jmnBQtWW5y3MEHsW-71" value="toModelType()" style="html=1;verticalAlign=bottom;endArrow=block;rounded=0;" edge="1" parent="1" target="gAT3jmnBQtWW5y3MEHsW-51">
          <mxGeometry relative="1" as="geometry">
            <mxPoint x="734.9973684210524" y="970" as="sourcePoint" />
            <mxPoint x="1270" y="970" as="targetPoint" />
          </mxGeometry>
        </mxCell>
        <mxCell id="gAT3jmnBQtWW5y3MEHsW-72" value="" style="html=1;verticalAlign=bottom;endArrow=open;dashed=1;endSize=8;rounded=0;exitX=0.039;exitY=0.987;exitDx=0;exitDy=0;exitPerimeter=0;entryX=0.887;entryY=0.77;entryDx=0;entryDy=0;entryPerimeter=0;" edge="1" parent="1" source="gAT3jmnBQtWW5y3MEHsW-70" target="7baba1c4bc27f4b0-22">
          <mxGeometry relative="1" as="geometry">
            <mxPoint x="740" y="1005" as="targetPoint" />
            <mxPoint x="1270" y="1000" as="sourcePoint" />
          </mxGeometry>
        </mxCell>
        <mxCell id="gAT3jmnBQtWW5y3MEHsW-48" value="" style="html=1;verticalAlign=bottom;endArrow=open;dashed=1;endSize=8;rounded=0;exitX=-0.012;exitY=1.013;exitDx=0;exitDy=0;exitPerimeter=0;entryX=0.91;entryY=0.597;entryDx=0;entryDy=0;entryPerimeter=0;" edge="1" parent="1" source="gAT3jmnBQtWW5y3MEHsW-45" target="7baba1c4bc27f4b0-22">
          <mxGeometry relative="1" as="geometry">
            <mxPoint x="740" y="880" as="targetPoint" />
            <mxPoint x="1060.9299999999996" y="871.04" as="sourcePoint" />
          </mxGeometry>
        </mxCell>
        <mxCell id="gAT3jmnBQtWW5y3MEHsW-74" value="" style="html=1;verticalAlign=bottom;endArrow=open;dashed=1;endSize=8;exitX=0.033;exitY=0.998;rounded=0;exitDx=0;exitDy=0;exitPerimeter=0;" edge="1" parent="1" source="7baba1c4bc27f4b0-22">
          <mxGeometry relative="1" as="geometry">
            <mxPoint x="80" y="1169" as="targetPoint" />
            <mxPoint x="594.9999999999998" y="1160.68" as="sourcePoint" />
          </mxGeometry>
        </mxCell>
        <mxCell id="gAT3jmnBQtWW5y3MEHsW-75" value="" style="html=1;verticalAlign=bottom;endArrow=open;dashed=1;endSize=8;rounded=0;exitX=-0.157;exitY=0.989;exitDx=0;exitDy=0;exitPerimeter=0;" edge="1" parent="1" source="gAT3jmnBQtWW5y3MEHsW-57">
          <mxGeometry relative="1" as="geometry">
            <mxPoint x="1400" y="862" as="targetPoint" />
            <mxPoint x="1436.6699999999996" y="860.74" as="sourcePoint" />
          </mxGeometry>
        </mxCell>
        <mxCell id="gAT3jmnBQtWW5y3MEHsW-76" value="" style="shape=umlDestroy;whiteSpace=wrap;html=1;strokeWidth=3;rounded=0;glass=0;" vertex="1" parent="1">
          <mxGeometry x="715" y="1180" width="30" height="30" as="geometry" />
        </mxCell>
        <mxCell id="gAT3jmnBQtWW5y3MEHsW-80" value=":CommandResult" style="shape=umlLifeline;perimeter=lifelinePerimeter;whiteSpace=wrap;html=1;container=1;collapsible=0;recursiveResize=0;outlineConnect=0;rounded=0;shadow=0;comic=0;labelBackgroundColor=none;strokeWidth=1;fontFamily=Verdana;fontSize=12;align=center;" vertex="1" parent="1">
          <mxGeometry x="835.93" y="1100" width="120" height="140" as="geometry" />
        </mxCell>
        <mxCell id="gAT3jmnBQtWW5y3MEHsW-81" value="" style="html=1;points=[];perimeter=orthogonalPerimeter;rounded=0;shadow=0;comic=0;labelBackgroundColor=none;strokeWidth=1;fontFamily=Verdana;fontSize=12;align=center;" vertex="1" parent="gAT3jmnBQtWW5y3MEHsW-80">
          <mxGeometry x="55" y="40" width="10" height="20" as="geometry" />
        </mxCell>
        <mxCell id="gAT3jmnBQtWW5y3MEHsW-82" value="" style="html=1;verticalAlign=bottom;endArrow=block;labelBackgroundColor=none;fontFamily=Verdana;fontSize=12;edgeStyle=elbowEdgeStyle;elbow=vertical;" edge="1" parent="1">
          <mxGeometry relative="1" as="geometry">
            <mxPoint x="735" y="1119" as="sourcePoint" />
            <mxPoint x="835.9300000000003" y="1120.18" as="targetPoint" />
            <Array as="points" />
          </mxGeometry>
        </mxCell>
        <mxCell id="gAT3jmnBQtWW5y3MEHsW-83" value="" style="html=1;verticalAlign=bottom;endArrow=open;dashed=1;endSize=8;rounded=0;entryX=1.133;entryY=0.987;entryDx=0;entryDy=0;entryPerimeter=0;" edge="1" parent="1" source="gAT3jmnBQtWW5y3MEHsW-80" target="7baba1c4bc27f4b0-22">
          <mxGeometry relative="1" as="geometry">
            <mxPoint x="725" y="1198.53" as="targetPoint" />
            <mxPoint x="1257.3899999999999" y="1191.4750000000001" as="sourcePoint" />
          </mxGeometry>
        </mxCell>
        <mxCell id="gAT3jmnBQtWW5y3MEHsW-89" value="" style="html=1;verticalAlign=bottom;endArrow=block;labelBackgroundColor=none;fontFamily=Verdana;fontSize=12;edgeStyle=elbowEdgeStyle;elbow=vertical;exitX=0.956;exitY=0.07;exitDx=0;exitDy=0;exitPerimeter=0;" edge="1" parent="1" source="7baba1c4bc27f4b0-22">
          <mxGeometry relative="1" as="geometry">
            <mxPoint x="740" y="503" as="sourcePoint" />
            <mxPoint x="980.0000000000005" y="500" as="targetPoint" />
            <Array as="points">
              <mxPoint x="739.0699999999999" y="500" />
            </Array>
          </mxGeometry>
        </mxCell>
        <mxCell id="gAT3jmnBQtWW5y3MEHsW-91" value="addPerson(person)" style="html=1;verticalAlign=bottom;endArrow=block;labelBackgroundColor=none;fontFamily=Verdana;fontSize=12;edgeStyle=elbowEdgeStyle;elbow=vertical;" edge="1" parent="1">
          <mxGeometry relative="1" as="geometry">
            <mxPoint x="735" y="1039.9999999999998" as="sourcePoint" />
            <mxPoint x="1699.5" y="1039.9999999999998" as="targetPoint" />
            <Array as="points">
              <mxPoint x="870" y="1040" />
            </Array>
          </mxGeometry>
        </mxCell>
        <mxCell id="gAT3jmnBQtWW5y3MEHsW-94" value="Logic" style="text;html=1;strokeColor=none;fillColor=none;align=center;verticalAlign=middle;whiteSpace=wrap;rounded=0;glass=0;" vertex="1" parent="1">
          <mxGeometry x="420" y="50" width="60" height="30" as="geometry" />
        </mxCell>
        <mxCell id="gAT3jmnBQtWW5y3MEHsW-96" value="Storage" style="text;html=1;strokeColor=none;fillColor=none;align=center;verticalAlign=middle;whiteSpace=wrap;rounded=0;glass=0;" vertex="1" parent="1">
          <mxGeometry x="1275" y="50" width="60" height="30" as="geometry" />
        </mxCell>
        <mxCell id="gAT3jmnBQtWW5y3MEHsW-99" value="Model" style="text;html=1;strokeColor=none;fillColor=none;align=center;verticalAlign=middle;whiteSpace=wrap;rounded=0;glass=0;" vertex="1" parent="1">
          <mxGeometry x="1670" y="50" width="60" height="30" as="geometry" />
        </mxCell>
      </root>
    </mxGraphModel>
  </diagram>
</mxfile>
